<?xml version="1.0" encoding="utf-8"?>
<svg viewBox="-0.055 0 34.046 35.48" fill="none" xmlns="http://www.w3.org/2000/svg">
  <defs>
    <linearGradient id="paint0_linear" x1="15.6684" y1="12.3386" x2="16.282" y2="7.1577" gradientUnits="userSpaceOnUse">
      <stop stop-color="#3669BB"/>
      <stop offset="1" stop-color="#61CBE1"/>
    </linearGradient>
    <linearGradient id="paint1_linear" x1="17.0354" y1="4.94947" x2="13.8814" y2="-4.33766" gradientUnits="userSpaceOnUse">
      <stop stop-color="#3669BB"/>
      <stop offset="1" stop-color="#61CBE1"/>
    </linearGradient>
    <linearGradient id="paint2_linear" x1="17.6583" y1="21.6615" x2="17.0447" y2="26.8424" gradientUnits="userSpaceOnUse">
      <stop stop-color="#3669BB"/>
      <stop offset="1" stop-color="#61CBE1"/>
    </linearGradient>
    <linearGradient id="paint3_linear" x1="16.291" y1="29.0506" x2="19.4451" y2="38.3378" gradientUnits="userSpaceOnUse">
      <stop stop-color="#3669BB"/>
      <stop offset="1" stop-color="#61CBE1"/>
    </linearGradient>
    <linearGradient id="paint4_linear" x1="17.7268" y1="17.4708" x2="42.189" y2="16.5113" gradientUnits="userSpaceOnUse">
      <stop stop-color="#3669BB"/>
      <stop offset="1" stop-color="#61CBE1"/>
    </linearGradient>
    <linearGradient id="paint5_linear" x1="28.5503" y1="17.3222" x2="40.6888" y2="14.1736" gradientUnits="userSpaceOnUse">
      <stop stop-color="#3669BB"/>
      <stop offset="1" stop-color="#61CBE1"/>
    </linearGradient>
    <linearGradient id="paint6_linear" x1="15.4438" y1="15.5244" x2="-13.5781" y2="19.1296" gradientUnits="userSpaceOnUse">
      <stop stop-color="#3669BB"/>
      <stop offset="1" stop-color="#61CBE1"/>
    </linearGradient>
    <linearGradient id="paint7_linear" x1="5.38742" y1="16.2151" x2="-8.69149" y2="22.0547" gradientUnits="userSpaceOnUse">
      <stop stop-color="#3669BB"/>
      <stop offset="1" stop-color="#61CBE1"/>
    </linearGradient>
  </defs>
  <path fill-rule="evenodd" clip-rule="evenodd" d="M22.6417 0.844357C20.711 0.844357 19.1448 2.41024 19.1448 4.34205C19.1448 6.272 20.711 7.83788 22.6417 7.83788C24.5724 7.83788 26.1378 6.272 26.1378 4.34205C26.1378 2.41024 24.5724 0.844357 22.6417 0.844357ZM12.087 1.08769C14.4205 3.42072 16.7776 6.33887 19.3909 8.34498C20.5584 9.24215 21.8796 9.67124 23.6255 8.75549C23.6461 8.76663 23.6472 8.6236 23.6255 8.75549L19.7355 12.647C18.4831 13.8989 16.4342 13.8989 15.182 12.647L8.11189 5.57543C5.27686 2.74088 9.63374 -1.36608 12.087 1.08769Z" fill="url(#paint0_linear)"/>
  <path fill-rule="evenodd" clip-rule="evenodd" d="M22.6417 0.844379C20.711 0.844379 19.1448 2.41026 19.1448 4.34207C19.1448 6.27202 20.711 7.8379 22.6417 7.8379C24.5724 7.8379 26.1377 6.27202 26.1377 4.34207C26.1377 2.41026 24.5724 0.844379 22.6417 0.844379ZM12.087 1.08772C14.4205 3.42074 16.7776 6.33889 19.3909 8.345C20.5583 9.24217 21.8796 9.67126 23.6255 8.75551C23.6461 8.76665 23.6472 8.62363 23.6255 8.75551L23.5023 8.87996C21.8317 9.68798 19.9561 10.1431 17.9755 10.1431C13.5184 10.1431 9.59773 7.84533 7.33222 4.36808C6.42728 1.74527 9.96735 -1.03356 12.087 1.08772Z" fill="url(#paint1_linear)"/>
  <path fill-rule="evenodd" clip-rule="evenodd" d="M10.6851 33.1557C12.6161 33.1557 14.1818 31.5898 14.1818 29.658C14.1818 27.7281 12.6161 26.1622 10.6851 26.1622C8.75462 26.1622 7.18872 27.7281 7.18872 29.658C7.18872 31.5898 8.75462 33.1557 10.6851 33.1557ZM21.2401 32.9124C18.9059 30.5793 16.5494 27.6612 13.9358 25.6551C12.7685 24.7579 11.4473 24.3288 9.70108 25.2446C9.68075 25.2334 9.67981 25.3765 9.70108 25.2446L13.5912 21.3531C14.8437 20.1011 16.8926 20.1011 18.1442 21.3531L25.2149 28.4228C28.0502 31.2592 23.6935 35.3661 21.2401 32.9124Z" fill="url(#paint2_linear)"/>
  <path fill-rule="evenodd" clip-rule="evenodd" d="M10.6851 33.1557C12.6161 33.1557 14.1818 31.5898 14.1818 29.658C14.1818 27.7281 12.6161 26.1622 10.6851 26.1622C8.75462 26.1622 7.18872 27.7281 7.18872 29.658C7.18872 31.5898 8.75462 33.1557 10.6851 33.1557ZM21.2401 32.9124C18.9059 30.5794 16.5494 27.6612 13.9358 25.6551C12.7685 24.7579 11.4473 24.3288 9.70108 25.2446C9.68075 25.2334 9.67981 25.3765 9.70108 25.2446L9.82428 25.1201C11.4949 24.3121 13.3702 23.857 15.351 23.857C19.8079 23.857 23.7286 26.1548 25.994 29.6302C26.8993 32.2548 23.3595 35.0337 21.2401 32.9124Z" fill="url(#paint3_linear)"/>
  <path fill-rule="evenodd" clip-rule="evenodd" d="M32.8183 22.9783C32.8183 21.0465 31.2528 19.4806 29.3221 19.4806C27.3914 19.4806 25.8253 21.0465 25.8253 22.9783C25.8253 24.9082 27.3914 26.4741 29.3221 26.4741C31.2528 26.4741 32.8183 24.9082 32.8183 22.9783ZM32.5764 12.4239C30.2426 14.757 27.3254 17.1141 25.3186 19.7277C24.4214 20.8942 23.9925 22.2167 24.9075 23.9628C24.8973 23.9832 25.0403 23.9832 24.9075 23.9628L21.0166 20.0713C19.7648 18.8193 19.7648 16.7705 21.0166 15.5185L28.0872 8.44887C30.9223 5.61245 35.0298 9.97017 32.5764 12.4239Z" fill="url(#paint4_linear)"/>
  <path fill-rule="evenodd" clip-rule="evenodd" d="M32.8183 22.9783C32.8183 21.0465 31.2528 19.4806 29.3221 19.4806C27.3914 19.4806 25.8253 21.0465 25.8253 22.9783C25.8253 24.9082 27.3914 26.4741 29.3221 26.4741C31.2528 26.4741 32.8183 24.9082 32.8183 22.9783ZM32.5764 12.4239C30.2427 14.757 27.3254 17.1141 25.3186 19.7277C24.4214 20.8942 23.9925 22.2167 24.9075 23.9628C24.8973 23.9832 25.0403 23.9832 24.9075 23.9628L24.784 23.8383C23.9749 22.1684 23.5201 20.2923 23.5201 18.3122C23.5201 13.8542 25.8194 9.93487 29.2948 7.66871C31.9181 6.76411 34.696 10.3045 32.5764 12.4239Z" fill="url(#paint5_linear)"/>
  <path fill-rule="evenodd" clip-rule="evenodd" d="M0.508185 11.0218C0.508185 12.9536 2.07415 14.5176 4.00458 14.5176C5.93567 14.5176 7.50142 12.9536 7.50142 11.0218C7.50142 9.09182 5.93567 7.52594 4.00458 7.52594C2.07415 7.52594 0.508185 9.09182 0.508185 11.0218ZM0.750533 21.5761C3.08387 19.2431 6.00148 16.8859 8.00839 14.2724C8.90521 13.1059 9.33446 11.7833 8.41951 10.0373C8.42945 10.0169 8.28664 10.0169 8.41951 10.0373L12.3097 13.9269C13.5619 15.1807 13.5619 17.2296 12.3097 18.4815L5.2396 25.5512C2.40416 28.3858 -1.7029 24.0299 0.750533 21.5761Z" fill="url(#paint6_linear)"/>
  <path fill-rule="evenodd" clip-rule="evenodd" d="M0.508214 11.0215C0.508214 12.9533 2.07418 14.5174 4.00461 14.5174C5.9357 14.5174 7.50144 12.9533 7.50144 11.0215C7.50144 9.09157 5.9357 7.52569 4.00461 7.52569C2.07418 7.52569 0.508214 9.09157 0.508214 11.0215ZM0.750561 21.5759C3.0839 19.2428 6.00151 16.8857 8.00841 14.2722C8.90524 13.1056 9.33449 11.7831 8.41954 10.037C8.42947 10.0166 8.28667 10.0166 8.41954 10.037L8.54252 10.1615C9.35191 11.8314 9.80606 13.7056 9.80606 15.6876C9.80606 20.1437 7.50797 24.0649 4.0321 26.3311C1.40852 27.2357 -1.36918 23.6953 0.750561 21.5759Z" fill="url(#paint7_linear)"/>
</svg>