<?xml version="1.0" encoding="utf-8"?>
<svg viewBox="-0.055 0 118.428 41.28" fill="none" xmlns="http://www.w3.org/2000/svg">
  <defs>
    <linearGradient id="paint0_linear" x1="15.6684" y1="12.3386" x2="16.282" y2="7.1577" gradientUnits="userSpaceOnUse" gradientTransform="matrix(1, 0, 0, 1, 0, 4)">
      <stop stop-color="#3669BB"/>
      <stop offset="1" stop-color="#61CBE1"/>
    </linearGradient>
    <linearGradient id="paint1_linear" x1="17.0354" y1="4.94947" x2="13.8814" y2="-4.33766" gradientUnits="userSpaceOnUse" gradientTransform="matrix(1, 0, 0, 1, 0, 4)">
      <stop stop-color="#3669BB"/>
      <stop offset="1" stop-color="#61CBE1"/>
    </linearGradient>
    <linearGradient id="paint2_linear" x1="17.6583" y1="21.6615" x2="17.0447" y2="26.8424" gradientUnits="userSpaceOnUse" gradientTransform="matrix(1, 0, 0, 1, 0, 4)">
      <stop stop-color="#3669BB"/>
      <stop offset="1" stop-color="#61CBE1"/>
    </linearGradient>
    <linearGradient id="paint3_linear" x1="16.291" y1="29.0506" x2="19.4451" y2="38.3378" gradientUnits="userSpaceOnUse" gradientTransform="matrix(1, 0, 0, 1, 0, 4)">
      <stop stop-color="#3669BB"/>
      <stop offset="1" stop-color="#61CBE1"/>
    </linearGradient>
    <linearGradient id="paint4_linear" x1="17.7268" y1="17.4708" x2="42.189" y2="16.5113" gradientUnits="userSpaceOnUse" gradientTransform="matrix(1, 0, 0, 1, 0, 4)">
      <stop stop-color="#3669BB"/>
      <stop offset="1" stop-color="#61CBE1"/>
    </linearGradient>
    <linearGradient id="paint5_linear" x1="28.5503" y1="17.3222" x2="40.6888" y2="14.1736" gradientUnits="userSpaceOnUse" gradientTransform="matrix(1, 0, 0, 1, 0, 4)">
      <stop stop-color="#3669BB"/>
      <stop offset="1" stop-color="#61CBE1"/>
    </linearGradient>
    <linearGradient id="paint6_linear" x1="15.4438" y1="15.5244" x2="-13.5781" y2="19.1296" gradientUnits="userSpaceOnUse" gradientTransform="matrix(1, 0, 0, 1, 0, 4)">
      <stop stop-color="#3669BB"/>
      <stop offset="1" stop-color="#61CBE1"/>
    </linearGradient>
    <linearGradient id="paint7_linear" x1="5.38742" y1="16.2151" x2="-8.69149" y2="22.0547" gradientUnits="userSpaceOnUse" gradientTransform="matrix(1, 0, 0, 1, 0, 4)">
      <stop stop-color="#3669BB"/>
      <stop offset="1" stop-color="#61CBE1"/>
    </linearGradient>
    <linearGradient id="paint8_linear" x1="33.3944" y1="13.2151" x2="132.277" y2="12.0863" gradientUnits="userSpaceOnUse">
      <stop stop-color="#3669BB"/>
      <stop offset="1" stop-color="#61CBE1"/>
    </linearGradient>
    <linearGradient id="paint9_linear" x1="33.3974" y1="13.4659" x2="132.28" y2="12.3371" gradientUnits="userSpaceOnUse">
      <stop stop-color="#3669BB"/>
      <stop offset="1" stop-color="#61CBE1"/>
    </linearGradient>
    <linearGradient id="paint10_linear" x1="33.3999" y1="13.6795" x2="132.283" y2="12.5507" gradientUnits="userSpaceOnUse">
      <stop stop-color="#3669BB"/>
      <stop offset="1" stop-color="#61CBE1"/>
    </linearGradient>
    <linearGradient id="paint11_linear" x1="33.4019" y1="13.8578" x2="132.285" y2="12.729" gradientUnits="userSpaceOnUse">
      <stop stop-color="#3669BB"/>
      <stop offset="1" stop-color="#61CBE1"/>
    </linearGradient>
    <linearGradient id="paint12_linear" x1="33.404" y1="14.0417" x2="132.287" y2="12.9129" gradientUnits="userSpaceOnUse">
      <stop stop-color="#3669BB"/>
      <stop offset="1" stop-color="#61CBE1"/>
    </linearGradient>
    <linearGradient id="paint13_linear" x1="34.1787" y1="26.4185" x2="122.84" y2="25.4064" gradientUnits="userSpaceOnUse">
      <stop stop-color="#3669BB"/>
      <stop offset="1" stop-color="#61CBE1"/>
    </linearGradient>
    <linearGradient id="paint14_linear" x1="34.1802" y1="26.5578" x2="122.841" y2="25.5457" gradientUnits="userSpaceOnUse">
      <stop stop-color="#3669BB"/>
      <stop offset="1" stop-color="#61CBE1"/>
    </linearGradient>
    <linearGradient id="paint15_linear" x1="34.1816" y1="26.6878" x2="122.843" y2="25.6757" gradientUnits="userSpaceOnUse">
      <stop stop-color="#3669BB"/>
      <stop offset="1" stop-color="#61CBE1"/>
    </linearGradient>
    <linearGradient id="paint16_linear" x1="34.1835" y1="26.8476" x2="122.844" y2="25.8355" gradientUnits="userSpaceOnUse">
      <stop stop-color="#3669BB"/>
      <stop offset="1" stop-color="#61CBE1"/>
    </linearGradient>
    <linearGradient id="paint17_linear" x1="34.185" y1="26.9813" x2="122.846" y2="25.9692" gradientUnits="userSpaceOnUse">
      <stop stop-color="#3669BB"/>
      <stop offset="1" stop-color="#61CBE1"/>
    </linearGradient>
    <linearGradient id="paint18_linear" x1="34.1869" y1="27.1374" x2="122.848" y2="26.1252" gradientUnits="userSpaceOnUse">
      <stop stop-color="#3669BB"/>
      <stop offset="1" stop-color="#61CBE1"/>
    </linearGradient>
    <linearGradient id="paint19_linear" x1="34.1887" y1="27.2785" x2="122.849" y2="26.2664" gradientUnits="userSpaceOnUse">
      <stop stop-color="#3669BB"/>
      <stop offset="1" stop-color="#61CBE1"/>
    </linearGradient>
  </defs>
  <path fill-rule="evenodd" clip-rule="evenodd" d="M 22.642 4.844 C 20.711 4.844 19.145 6.41 19.145 8.342 C 19.145 10.272 20.711 11.838 22.642 11.838 C 24.572 11.838 26.138 10.272 26.138 8.342 C 26.138 6.41 24.572 4.844 22.642 4.844 Z M 12.087 5.088 C 14.421 7.421 16.778 10.339 19.391 12.345 C 20.558 13.242 21.88 13.671 23.626 12.755 C 23.646 12.767 23.647 12.624 23.626 12.755 L 19.736 16.647 C 18.483 17.899 16.434 17.899 15.182 16.647 L 8.112 9.575 C 5.277 6.741 9.634 2.634 12.087 5.088 Z" fill="url(#paint0_linear)"/>
  <path fill-rule="evenodd" clip-rule="evenodd" d="M 22.642 4.844 C 20.711 4.844 19.145 6.41 19.145 8.342 C 19.145 10.272 20.711 11.838 22.642 11.838 C 24.572 11.838 26.138 10.272 26.138 8.342 C 26.138 6.41 24.572 4.844 22.642 4.844 Z M 12.087 5.088 C 14.421 7.421 16.778 10.339 19.391 12.345 C 20.558 13.242 21.88 13.671 23.626 12.756 C 23.646 12.767 23.647 12.624 23.626 12.756 L 23.502 12.88 C 21.832 13.688 19.956 14.143 17.976 14.143 C 13.518 14.143 9.598 11.845 7.332 8.368 C 6.427 5.745 9.967 2.966 12.087 5.088 Z" fill="url(#paint1_linear)"/>
  <path fill-rule="evenodd" clip-rule="evenodd" d="M 10.685 37.156 C 12.616 37.156 14.182 35.59 14.182 33.658 C 14.182 31.728 12.616 30.162 10.685 30.162 C 8.755 30.162 7.189 31.728 7.189 33.658 C 7.189 35.59 8.755 37.156 10.685 37.156 Z M 21.24 36.912 C 18.906 34.579 16.549 31.661 13.936 29.655 C 12.769 28.758 11.447 28.329 9.701 29.245 C 9.681 29.233 9.68 29.377 9.701 29.245 L 13.591 25.353 C 14.844 24.101 16.893 24.101 18.144 25.353 L 25.215 32.423 C 28.05 35.259 23.694 39.366 21.24 36.912 Z" fill="url(#paint2_linear)"/>
  <path fill-rule="evenodd" clip-rule="evenodd" d="M 10.685 37.156 C 12.616 37.156 14.182 35.59 14.182 33.658 C 14.182 31.728 12.616 30.162 10.685 30.162 C 8.755 30.162 7.189 31.728 7.189 33.658 C 7.189 35.59 8.755 37.156 10.685 37.156 Z M 21.24 36.912 C 18.906 34.579 16.549 31.661 13.936 29.655 C 12.769 28.758 11.447 28.329 9.701 29.245 C 9.681 29.233 9.68 29.377 9.701 29.245 L 9.824 29.12 C 11.495 28.312 13.37 27.857 15.351 27.857 C 19.808 27.857 23.729 30.155 25.994 33.63 C 26.899 36.255 23.36 39.034 21.24 36.912 Z" fill="url(#paint3_linear)"/>
  <path fill-rule="evenodd" clip-rule="evenodd" d="M 32.818 26.978 C 32.818 25.047 31.253 23.481 29.322 23.481 C 27.391 23.481 25.825 25.047 25.825 26.978 C 25.825 28.908 27.391 30.474 29.322 30.474 C 31.253 30.474 32.818 28.908 32.818 26.978 Z M 32.576 16.424 C 30.243 18.757 27.325 21.114 25.319 23.728 C 24.421 24.894 23.993 26.217 24.908 27.963 C 24.897 27.983 25.04 27.983 24.908 27.963 L 21.017 24.071 C 19.765 22.819 19.765 20.771 21.017 19.519 L 28.087 12.449 C 30.922 9.612 35.03 13.97 32.576 16.424 Z" fill="url(#paint4_linear)"/>
  <path fill-rule="evenodd" clip-rule="evenodd" d="M 32.818 26.978 C 32.818 25.047 31.253 23.481 29.322 23.481 C 27.391 23.481 25.825 25.047 25.825 26.978 C 25.825 28.908 27.391 30.474 29.322 30.474 C 31.253 30.474 32.818 28.908 32.818 26.978 Z M 32.576 16.424 C 30.243 18.757 27.325 21.114 25.319 23.728 C 24.421 24.894 23.993 26.217 24.908 27.963 C 24.897 27.983 25.04 27.983 24.908 27.963 L 24.784 27.838 C 23.975 26.168 23.52 24.292 23.52 22.312 C 23.52 17.854 25.819 13.935 29.295 11.669 C 31.918 10.764 34.696 14.305 32.576 16.424 Z" fill="url(#paint5_linear)"/>
  <path fill-rule="evenodd" clip-rule="evenodd" d="M 0.508 15.022 C 0.508 16.954 2.074 18.518 4.005 18.518 C 5.936 18.518 7.501 16.954 7.501 15.022 C 7.501 13.092 5.936 11.526 4.005 11.526 C 2.074 11.526 0.508 13.092 0.508 15.022 Z M 0.751 25.576 C 3.084 23.243 6.001 20.886 8.008 18.272 C 8.905 17.106 9.334 15.783 8.42 14.037 C 8.429 14.017 8.287 14.017 8.42 14.037 L 12.31 17.927 C 13.562 19.181 13.562 21.23 12.31 22.482 L 5.24 29.551 C 2.404 32.386 -1.703 28.03 0.751 25.576 Z" fill="url(#paint6_linear)"/>
  <path fill-rule="evenodd" clip-rule="evenodd" d="M 0.508 15.022 C 0.508 16.953 2.074 18.517 4.005 18.517 C 5.936 18.517 7.501 16.953 7.501 15.022 C 7.501 13.092 5.936 11.526 4.005 11.526 C 2.074 11.526 0.508 13.092 0.508 15.022 Z M 0.751 25.576 C 3.084 23.243 6.002 20.886 8.008 18.272 C 8.905 17.106 9.334 15.783 8.42 14.037 C 8.429 14.017 8.287 14.017 8.42 14.037 L 8.543 14.162 C 9.352 15.831 9.806 17.706 9.806 19.688 C 9.806 24.144 7.508 28.065 4.032 30.331 C 1.409 31.236 -1.369 27.695 0.751 25.576 Z" fill="url(#paint7_linear)"/>
  <path d="M40.5403 20.1733C40.2759 20.1733 40.0536 20.0823 39.8734 19.9021C39.6932 19.722 39.6031 19.4991 39.6031 19.2353V7.03333C39.6031 6.75656 39.6932 6.5318 39.8734 6.35719C40.0536 6.18259 40.2759 6.09529 40.5403 6.09529H48.6869C48.9631 6.09529 49.1853 6.17702 49.3538 6.33862C49.5219 6.50208 49.6062 6.71569 49.6062 6.97946C49.6062 7.23208 49.5219 7.43641 49.3538 7.59244C49.1853 7.74847 48.9631 7.82648 48.6869 7.82648H41.4776V12.2065H46.6502C46.9266 12.2065 47.1487 12.2864 47.3172 12.4498C47.4853 12.6114 47.5694 12.8195 47.5694 13.0702C47.5694 13.3229 47.4853 13.5309 47.3172 13.6925C47.1487 13.856 46.9266 13.9358 46.6502 13.9358H41.4776V19.2353C41.4776 19.4991 41.3875 19.722 41.2071 19.9021C41.0269 20.0823 40.8044 20.1733 40.5403 20.1733Z" fill="url(#paint8_linear)"/>
  <path d="M62.4624 18.6576C63.2435 18.6576 63.9612 18.5164 64.6164 18.2341C65.2711 17.9518 65.8386 17.5617 66.3193 17.0639C66.8001 16.5642 67.1695 15.9791 67.4281 15.3067C67.6863 14.6324 67.8157 13.9061 67.8157 13.126C67.8157 12.3439 67.6863 11.6177 67.4281 10.9452C67.1695 10.271 66.8001 9.68585 66.3193 9.18804C65.8386 8.68837 65.2711 8.302 64.6164 8.02524C63.9612 7.74847 63.2435 7.61101 62.4624 7.61101C61.6813 7.61101 60.9636 7.74847 60.3086 8.02524C59.6537 8.302 59.089 8.68837 58.6146 9.18804C58.1396 9.68585 57.7702 10.271 57.506 10.9452C57.2417 11.6177 57.1096 12.3439 57.1096 13.126C57.1096 13.9061 57.2417 14.6324 57.506 15.3067C57.7702 15.9791 58.1396 16.5642 58.6146 17.0639C59.089 17.5617 59.6537 17.9518 60.3086 18.2341C60.9636 18.5164 61.6813 18.6576 62.4624 18.6576ZM62.4624 20.3535C61.4051 20.3535 60.4377 20.1752 59.5608 19.8204C58.6835 19.4675 57.9297 18.9678 57.2989 18.3251C56.6681 17.6824 56.1783 16.919 55.8298 16.0367C55.4811 15.1525 55.3071 14.1829 55.3071 13.126C55.3071 12.069 55.4811 11.1013 55.8298 10.2227C56.1783 9.34593 56.6681 8.58621 57.2989 7.94351C57.9297 7.30081 58.6835 6.803 59.5608 6.44821C60.4377 6.09343 61.4051 5.9151 62.4624 5.9151C63.5199 5.9151 64.4839 6.09343 65.3553 6.44821C66.2263 6.803 66.9802 7.30081 67.6174 7.94351C68.2537 8.58621 68.7467 9.34593 69.095 10.2227C69.4433 11.1013 69.6179 12.069 69.6179 13.126C69.6179 14.1829 69.4433 15.1525 69.095 16.0367C68.7467 16.919 68.2537 17.6824 67.6174 18.3251C66.9802 18.9678 66.2263 19.4675 65.3553 19.8204C64.4839 20.1752 63.5199 20.3535 62.4624 20.3535Z" fill="url(#paint9_linear)"/>
  <path d="M77.4275 20.1733C77.1631 20.1733 76.9438 20.0823 76.7699 19.9021C76.5953 19.722 76.5085 19.4991 76.5085 19.2353V7.03333C76.5085 6.76956 76.5985 6.54666 76.7788 6.36648C76.9588 6.1863 77.1752 6.09529 77.4275 6.09529C77.6918 6.09529 77.9143 6.1863 78.0945 6.36648C78.2745 6.54666 78.3649 6.76956 78.3649 7.03333V18.2973H84.8894C85.1534 18.2973 85.3759 18.3883 85.5563 18.5685C85.7363 18.7486 85.8266 18.9715 85.8266 19.2353C85.8266 19.4991 85.7363 19.722 85.5563 19.9021C85.3759 20.0823 85.1534 20.1733 84.8894 20.1733H77.4275Z" fill="url(#paint10_linear)"/>
  <path d="M92.9692 20.1733C92.717 20.1733 92.4978 20.0823 92.3115 19.9021C92.125 19.722 92.0321 19.4991 92.0321 19.2353V7.03333C92.0321 6.76956 92.125 6.54666 92.3115 6.36648C92.4978 6.1863 92.717 6.09529 92.9692 6.09529C93.2335 6.09529 93.4561 6.1863 93.6362 6.36648C93.8164 6.54666 93.9065 6.76956 93.9065 7.03333V12.4405L99.8723 6.47422C100.016 6.33119 100.149 6.23088 100.269 6.17702C100.389 6.12315 100.515 6.09529 100.647 6.09529C100.948 6.09529 101.164 6.1863 101.296 6.36648C101.428 6.54666 101.476 6.76027 101.44 7.00547C101.404 7.25251 101.29 7.47727 101.098 7.6816L96.502 12.2956L101.188 18.6762C101.332 18.8805 101.392 19.0997 101.368 19.3337C101.344 19.5697 101.26 19.7665 101.116 19.9281C100.972 20.0916 100.779 20.1733 100.539 20.1733C100.203 20.1733 99.9443 20.0396 99.7644 19.7758L95.2042 13.594L93.9065 14.8924V19.2353C93.9065 19.4991 93.8164 19.722 93.6362 19.9021C93.4561 20.0823 93.2335 20.1733 92.9692 20.1733Z" fill="url(#paint11_linear)"/>
  <path d="M111.936 20.3535C111.166 20.3535 110.433 20.2328 109.737 19.9913C109.04 19.7517 108.433 19.4155 107.916 18.9827C107.399 18.5499 107.021 18.0521 106.781 17.4874C106.661 17.2348 106.663 17.0007 106.79 16.7834C106.916 16.5679 107.129 16.4305 107.43 16.3692C107.646 16.3209 107.859 16.3543 108.069 16.4676C108.28 16.5828 108.439 16.7537 108.547 16.9821C108.691 17.2831 108.928 17.5598 109.259 17.8106C109.589 18.0632 109.989 18.2675 110.457 18.4236C110.926 18.5796 111.419 18.6576 111.936 18.6576C112.512 18.6576 113.044 18.5685 113.531 18.3883C114.017 18.2081 114.41 17.9462 114.711 17.6044C115.011 17.2608 115.161 16.8373 115.161 16.3339C115.161 15.6967 114.912 15.1265 114.414 14.6212C113.915 14.116 113.095 13.8039 111.954 13.6832C110.463 13.5402 109.292 13.1018 108.439 12.3681C107.586 11.6362 107.159 10.7279 107.159 9.64684C107.159 8.85368 107.382 8.18127 107.826 7.62773C108.27 7.07605 108.874 6.65439 109.637 6.36648C110.4 6.07857 111.25 5.93368 112.188 5.93368C112.921 5.93368 113.56 6.03584 114.107 6.24017C114.654 6.44449 115.131 6.72684 115.54 7.08719C115.949 7.44755 116.303 7.87477 116.603 8.36701C116.772 8.63078 116.841 8.87969 116.811 9.11559C116.781 9.34964 116.663 9.53353 116.459 9.66542C116.231 9.80844 115.985 9.83816 115.72 9.75458C115.456 9.67099 115.258 9.51495 115.126 9.28648C114.933 8.93727 114.699 8.64379 114.423 8.40231C114.146 8.16269 113.822 7.97323 113.45 7.83577C113.077 7.69646 112.638 7.62773 112.134 7.62773C111.245 7.61658 110.499 7.7819 109.899 8.12368C109.298 8.46547 108.998 8.99114 108.998 9.70071C108.998 10.0611 109.091 10.4066 109.277 10.7372C109.463 11.0678 109.806 11.3539 110.304 11.5935C110.803 11.8331 111.521 12.0022 112.458 12.0988C113.888 12.2418 115.002 12.6783 115.802 13.4046C116.6 14.1327 117 15.0893 117 16.28C117 16.9636 116.859 17.5598 116.577 18.0632C116.294 18.5685 115.916 18.992 115.441 19.3337C114.966 19.6774 114.426 19.9319 113.819 20.1009C113.212 20.2681 112.584 20.3535 111.936 20.3535Z" fill="url(#paint12_linear)"/>
  <path d="M39.5917 29.3311C39.5103 29.3311 39.4405 29.3013 39.3821 29.2419C39.3238 29.1843 39.2946 29.1137 39.2946 29.0339V23.6787C39.2946 23.5932 39.3225 23.5226 39.3784 23.4669C39.4341 23.4112 39.5053 23.3815 39.5917 23.3815H43.1635C43.2497 23.3815 43.3208 23.4093 43.3767 23.4613C43.4324 23.5152 43.4605 23.5858 43.4605 23.6712C43.4605 23.7474 43.4324 23.8143 43.3767 23.87C43.3208 23.9257 43.2497 23.9536 43.1635 23.9536H39.8887V26.0563H42.2724C42.3586 26.0563 42.4297 26.0841 42.4857 26.1399C42.5414 26.1956 42.5694 26.2643 42.5694 26.3442C42.5694 26.4259 42.5414 26.4946 42.4857 26.5504C42.4297 26.6061 42.3586 26.634 42.2724 26.634H39.8887V29.0339C39.8887 29.1137 39.8606 29.1843 39.8049 29.2419C39.749 29.3013 39.6779 29.3311 39.5917 29.3311Z" fill="url(#paint13_linear)"/>
  <path d="M51.8902 29.3311C51.8038 29.3311 51.7327 29.3032 51.6769 29.2456C51.621 29.1899 51.5932 29.1193 51.5932 29.0339V23.6787C51.5932 23.5932 51.621 23.5226 51.6769 23.4669C51.7327 23.4112 51.8038 23.3815 51.8902 23.3815C51.9764 23.3815 52.0475 23.4112 52.1034 23.4669C52.1592 23.5226 52.1872 23.5932 52.1872 23.6787V29.0339C52.1872 29.1193 52.1592 29.1899 52.1034 29.2456C52.0475 29.3032 51.9764 29.3311 51.8902 29.3311Z" fill="url(#paint14_linear)"/>
  <path d="M61.0739 29.3311C60.9875 29.3311 60.9164 29.3032 60.8605 29.2456C60.8048 29.1899 60.7767 29.1193 60.7767 29.0339V23.6787C60.7767 23.5932 60.8048 23.5226 60.8605 23.4669C60.9164 23.4112 60.9875 23.3815 61.0739 23.3815C61.1653 23.3815 61.2411 23.4186 61.302 23.4892L64.9427 28.2723V23.6787C64.9427 23.5932 64.9702 23.5226 65.0261 23.4669C65.082 23.4112 65.1532 23.3815 65.2396 23.3815C65.3207 23.3815 65.3904 23.4112 65.4493 23.4669C65.5072 23.5226 65.5366 23.5932 65.5366 23.6787V29.0339C65.5366 29.1193 65.5072 29.1899 65.4493 29.2456C65.3904 29.3032 65.3207 29.3311 65.2396 29.3311C65.1989 29.3311 65.1582 29.3218 65.1175 29.3069C65.077 29.292 65.044 29.266 65.0185 29.2307L61.3707 24.4477V29.0339C61.3707 29.1193 61.3416 29.1899 61.2832 29.2456C61.2247 29.3032 61.1547 29.3311 61.0739 29.3311Z" fill="url(#paint15_linear)"/>
  <path d="M74.3014 27.9138L74.5299 27.403H77.6219L77.8504 27.9138H74.3014ZM73.7988 29.3311C73.6819 29.3311 73.5982 29.2828 73.5475 29.1862C73.4967 29.0896 73.4914 28.9948 73.5322 28.9038L75.7713 23.5876C75.8272 23.4502 75.9236 23.3815 76.0607 23.3815C76.1926 23.3815 76.2864 23.4502 76.3424 23.5876L78.5891 28.9113C78.6348 29.0078 78.6285 29.1026 78.57 29.1936C78.5116 29.2846 78.429 29.3311 78.3226 29.3311C78.2616 29.3311 78.207 29.3143 78.1587 29.2846C78.1106 29.2549 78.0712 29.2085 78.0408 29.1472L75.9464 24.0669H76.1825L74.0729 29.1472C74.0475 29.2085 74.0105 29.2549 73.9626 29.2846C73.9141 29.3143 73.8597 29.3311 73.7988 29.3311Z" fill="url(#paint16_linear)"/>
  <path d="M86.8435 29.3311C86.7572 29.3311 86.6862 29.3032 86.6303 29.2456C86.5744 29.1899 86.5465 29.1193 86.5465 29.0339V23.6787C86.5465 23.5932 86.5744 23.5226 86.6303 23.4669C86.6862 23.4112 86.7572 23.3815 86.8435 23.3815C86.9349 23.3815 87.0111 23.4186 87.072 23.4892L90.7123 28.2723V23.6787C90.7123 23.5932 90.7402 23.5226 90.7961 23.4669C90.8518 23.4112 90.923 23.3815 91.0094 23.3815C91.0905 23.3815 91.1604 23.4112 91.2189 23.4669C91.277 23.5226 91.3064 23.5932 91.3064 23.6787V29.0339C91.3064 29.1193 91.277 29.1899 91.2189 29.2456C91.1604 29.3032 91.0905 29.3311 91.0094 29.3311C90.9687 29.3311 90.9282 29.3218 90.8875 29.3069C90.8468 29.292 90.8138 29.266 90.7885 29.2307L87.1405 24.4477V29.0339C87.1405 29.1193 87.1114 29.1899 87.0529 29.2456C86.9945 29.3032 86.9247 29.3311 86.8435 29.3311Z" fill="url(#paint17_linear)"/>
  <path d="M102.569 29.4072C102.158 29.4072 101.773 29.3274 101.415 29.1695C101.057 29.0134 100.742 28.7942 100.471 28.5119C100.199 28.2296 99.9873 27.9045 99.8352 27.5367C99.6827 27.1689 99.6065 26.7733 99.6065 26.3516C99.6065 25.9355 99.6816 25.5436 99.8313 25.1758C99.981 24.808 100.192 24.4848 100.463 24.2043C100.735 23.9257 101.05 23.7065 101.408 23.5468C101.765 23.3852 102.153 23.3072 102.569 23.3072C102.935 23.3072 103.267 23.3592 103.567 23.4669C103.866 23.5728 104.156 23.7437 104.435 23.9759C104.481 24.0112 104.507 24.0539 104.515 24.1022C104.523 24.1505 104.516 24.1969 104.496 24.2396C104.476 24.2824 104.445 24.3139 104.404 24.3344C104.394 24.3752 104.369 24.405 104.328 24.4254C104.288 24.4458 104.241 24.4533 104.187 24.4477C104.134 24.444 104.082 24.4217 104.031 24.3808C103.833 24.2081 103.617 24.0799 103.384 23.9963C103.15 23.9109 102.879 23.87 102.569 23.87C102.239 23.87 101.931 23.935 101.644 24.0669C101.357 24.2006 101.104 24.3808 100.886 24.6093C100.668 24.8378 100.496 25.1015 100.372 25.4006C100.247 25.6996 100.185 26.0173 100.185 26.3516C100.185 26.6971 100.247 27.0203 100.372 27.3194C100.496 27.6184 100.668 27.8841 100.886 28.1125C101.104 28.341 101.357 28.5193 101.644 28.6494C101.931 28.7775 102.239 28.8425 102.569 28.8425C102.848 28.8425 103.112 28.798 103.361 28.7051C103.61 28.6141 103.846 28.4822 104.07 28.3094C104.13 28.2593 104.195 28.2389 104.264 28.2481C104.332 28.2593 104.392 28.289 104.443 28.341C104.493 28.3912 104.519 28.4562 104.519 28.5379C104.519 28.5788 104.512 28.6159 104.5 28.6494C104.487 28.6809 104.465 28.7162 104.435 28.7515C104.176 28.9893 103.887 29.1583 103.567 29.2586C103.247 29.3571 102.914 29.4072 102.569 29.4072Z" fill="url(#paint18_linear)"/>
  <path d="M113.131 29.3311C113.045 29.3311 112.974 29.3032 112.918 29.2456C112.862 29.1899 112.834 29.1193 112.834 29.0339V23.6787C112.834 23.5932 112.862 23.5226 112.918 23.4669C112.974 23.4112 113.045 23.3815 113.131 23.3815H116.703C116.784 23.3815 116.854 23.4093 116.912 23.4613C116.971 23.5152 117 23.5858 117 23.6712C117 23.7474 116.971 23.8143 116.912 23.87C116.854 23.9257 116.784 23.9536 116.703 23.9536H113.428V26.0563H115.812C115.898 26.0563 115.969 26.0841 116.025 26.1399C116.081 26.1956 116.109 26.2643 116.109 26.3442C116.109 26.4259 116.081 26.4946 116.025 26.5504C115.969 26.6061 115.898 26.634 115.812 26.634H113.428V28.7589H116.703C116.784 28.7589 116.854 28.7868 116.912 28.8425C116.971 28.8983 117 28.9651 117 29.0413C117 29.1267 116.971 29.1973 116.912 29.2512C116.854 29.3032 116.784 29.3311 116.703 29.3311H113.131Z" fill="url(#paint19_linear)"/>
  <text style="fill: rgb(79, 163, 210); font-family: Arial, sans-serif; font-size: 6.26147px; letter-spacing: 2.5px; white-space: pre;" transform="matrix(1.103153, 0, 0, 0.958241, -3.984283, 2.387446)" x="38.625" y="37.774">NOTIFICATION</text>
</svg>